<?xml version="1.0" encoding="utf-8"?>
<!-- Generator: Adobe Illustrator 25.3.1, SVG Export Plug-In . SVG Version: 6.00 Build 0)  -->
<svg version="1.1" id="Layer_1" xmlns="http://www.w3.org/2000/svg" xmlns:xlink="http://www.w3.org/1999/xlink" x="0px" y="0px"
	 viewBox="0 0 138.3 42" style="enable-background:new 0 0 138.3 42;" xml:space="preserve">
<style type="text/css">
	.st0{fill:#00A551;}
</style>
<g>
	<path class="st0" d="M38.1,27.1c0.1,0.3,0.3,0.6,0.4,1c0.5,2.2,1,4.4,1.5,6.6c0.4,1.8,1.7,3,3.5,3c0.9,0,1.7-0.2,2.5-0.3
		c2.3-0.5,4.6-0.9,6.9-1.5c1.4-0.3,2.8-0.8,4.2-1.1c0.5-0.1,1.1,0,1.6,0.1c0.4,0,0.8,0.1,1.1-0.1c1.8-0.8,3.6-0.8,5.5-0.7
		c1,0,2-0.3,3-0.5c4.7-0.8,9.5-1.8,14.2-2.4c2.6-0.3,5.1-0.8,7.7-1.3c0.1,0,0.2,0,0.5,0c-1.2,0.9-2.7,0.9-3.9,2.6
		c-0.9,0.1-2.4,0.2-3.8,0.5c-1.5,0.3-2.9,0.8-4.4,1.1c-5.3,1-10.5,2-15.8,2.9c-2.4,0.4-4.8,0.6-7.2,1.1c-2.4,0.5-4.7,1.3-7.1,1.8
		c-1.6,0.4-3.2,0.6-4.9,0.8c-2.7,0.3-5.4-2-5.8-5.2c-0.3-2.3-0.2-4.7-0.3-7.1c0-0.4,0.2-0.8,0.3-1.2C37.9,27.1,38,27.1,38.1,27.1z"
		/>
	<path class="st0" d="M96.1,18.9c-0.2-1.4-0.3-2.8-0.5-4.2c-0.3-1.8-0.6-3.6-1-5.3c-0.1-0.6-0.2-1.2-0.3-1.8
		c-0.4-1.2-1.2-2.1-2.5-2.2c-2.2-0.1-4.4-0.5-6.6,0.5c-1.9,0.8-4,1.1-6.1,1.5c-2.3,0.5-4.6,1-6.9,1.3c0.4-0.2,0.8-0.3,1.3-0.5
		c0-0.1,0-0.2,0-0.2c-0.3,0.1-0.6,0.1-1,0.2C68.8,9,65.2,10,61.5,10.9c-4.2,1-8.4,1.9-12.7,2.8c-0.7,0.1-1.5,0-2.2,0
		c-0.6,0-1.2,0-1.8,0.1c-1.4,0.3-2.9,0.5-4.3,1c-1,0.4-2,1-2.8,1.8c-0.9,0.8-1.1,2-0.7,3.2c0.1,0.2,0,0.5-0.1,0.9
		c-1.4-1-1.9-2.6-1.2-4c0.9-1.7,2.2-2.8,4.1-3.1c0.7-0.1,1.5-0.2,2.2-0.3c0.9-0.2,1.7-0.6,2.6-0.8c1.7-0.4,3.3-0.8,5-1.1
		c2.7-0.6,5.4-1.4,8.1-2c2.8-0.6,5.7-1,8.5-1.6c2.1-0.4,4.1-1.1,6.1-1.5c1.9-0.4,3.8-0.5,5.7-0.7c0.5-0.1,1.1-0.1,1.6-0.3
		c1.4-0.6,2.9-0.2,4.3-0.4c1.6-0.2,3.2-0.7,4.7-1.1c1.7-0.5,3.4-0.8,5,0.4c0-0.1,0.1-0.3,0.1-0.4C93,3.4,92.1,3,91.2,2.7
		c0-0.1,0-0.1,0.1-0.2c1,0.4,2,0.7,2.9,1.2c0.3,0.2,0.3,1,0.6,1.3c1.4,1.4,1.8,3.3,2,5.2c0.1,1,0.4,2,0.5,3c0.2,1.2,0.4,2.3,0.2,3.6
		c-0.3,1.6,0.1,3.4,0.2,5.1c0.1,0.9,0.1,1.7,0.1,2.6c-1.3-4.2-0.3-8.8-2.5-12.8c0.4,2.5,0.8,4.9,1.3,7.4
		C96.3,18.9,96.2,18.9,96.1,18.9z"/>
	<path class="st0" d="M90.2,15.6c-1.3,0.6-2.2,0.5-3-0.7c-0.5-0.7-1.2-1.3-2.1-1.9c0.2,1.2,0.4,2.3,0.6,3.6
		c-0.6,0.1-1.2,0.3-1.9,0.4c-0.4-2.4-0.8-4.7-1.2-7c1.6-0.7,1.8-0.7,2.8,0.5c0.7,0.7,1.4,1.5,2.3,2.1c-0.2-1.2-0.4-2.3-0.6-3.6
		c0.6-0.1,1.2-0.3,1.9-0.4C89.4,10.9,89.8,13.3,90.2,15.6z"/>
	<path class="st0" d="M71.3,19.4c-0.7,0.2-1.3,0.3-2.1,0.5C69,18.9,68.9,18,68.7,17c-0.8,0.1-1.5,0.3-2.3,0.4c0.2,1,0.3,1.9,0.5,2.9
		c-0.7,0.2-1.3,0.3-2,0.5c-0.4-2.4-0.8-4.7-1.3-7.1c0.7-0.1,1.3-0.3,2-0.4c0.2,0.9,0.3,1.6,0.5,2.5c0.8-0.1,1.5-0.3,2.3-0.4
		c-0.1-0.8-0.2-1.6-0.4-2.5c0.7-0.1,1.3-0.3,2-0.4C70.4,14.7,70.8,17,71.3,19.4z"/>
	<path class="st0" d="M78.7,10.5c-2.2,0-3.8,1.5-3.9,3.5c0,2.4,1.4,4.1,3.3,4.1c2.4,0,3.9-1.3,3.9-3.5
		C82.1,12.1,80.7,10.5,78.7,10.5z M78.5,16.4c-1,0-1.6-1-1.6-2.5c0-1,0.7-1.7,1.5-1.7c0.9,0,1.6,1.1,1.5,2.6
		C80,15.9,79.5,16.4,78.5,16.4z"/>
	<path class="st0" d="M57.2,22.2c-0.9-1.7-1.8-3.2-2.7-4.7c-1.1-2-1.1-2-3.4-1.4c-0.4,2.4-0.8,4.9-1.3,7.5c0.7-0.1,1.4-0.2,2.1-0.3
		c-0.3-1.6,0.9-1.5,1.8-1.6c0.5-0.1,1,0.4,1.5,0.6c0,0.1-0.1,0.2-0.1,0.4C55.8,22.5,56.4,22.4,57.2,22.2z M52.3,20.4
		c0.1-0.9,0.1-1.7,0.2-2.4c0.1,0,0.1,0,0.2-0.1c0.3,0.7,0.7,1.3,1.1,2.1C53.3,20.2,52.9,20.3,52.3,20.4z"/>
	<path class="st0" d="M62.4,15.9c-0.8,0.1-1.5,0.8-2.3-0.2c-0.2-0.2-0.7,0-1.1,0.1c-0.1,0-0.2,0.4-0.1,0.5c0.3,0.2,0.6,0.4,1,0.5
		c0.7,0.1,1.4,0.1,2.1,0.3c1.2,0.3,1.7,1.6,1.3,2.8c-0.6,1.7-3.8,2.6-5.2,1.3c-0.4-0.3-0.6-0.8-1-1.4c1-0.2,1.8-0.9,2.6,0.2
		c0.2,0.2,0.9,0.1,1.3,0c0.2,0,0.4-0.6,0.3-0.7c-0.3-0.3-0.6-0.5-0.9-0.6c-0.6-0.1-1.2-0.1-1.7-0.2c-0.9-0.2-1.6-0.6-1.7-1.6
		c-0.1-1,0.3-1.8,1.1-2.1c0.9-0.3,2-0.5,3-0.5c0.6,0,1.1,0.8,1.6,1.2C62.5,15.6,62.5,15.8,62.4,15.9z"/>
	<path class="st0" d="M84.1,23.5c0,0,0-0.1,0.1-0.1c0.8-0.6,0.9-1.3,0.6-2.2c-0.3-0.9-0.9-1.2-1.8-1.1c-1.3,0.2-2.7,0.5-4.1,0.7
		c0.4,2.2,0.8,4.4,1.2,6.6c0.7-0.1,1.3-0.2,1.9-0.4c-0.1-0.5-0.1-0.9-0.2-1.4c-0.1-0.4-0.1-0.9-0.2-1.3c0.1-0.1,0.2-0.1,0.3-0.2
		c0.4,0.4,0.9,0.8,1.2,1.3c1.1,1.4,1.3,1.5,3,0.6C85.5,25.2,84.8,24.4,84.1,23.5z M81.6,23.3c-0.1-0.1-0.2-0.2-0.4-0.3
		c0-0.4-0.1-0.8-0.1-1.6c0.8,0.3,1.3,0.5,1.9,0.7C82.6,22.5,82.1,22.9,81.6,23.3z"/>
	<path class="st0" d="M49.2,28.3c-0.5-0.9-1.4-1.3-2.3-1.1c-1.1,0.1-2.2,0.4-3.4,0.7c0.4,2.2,0.8,4.3,1.2,6.6c1.3-0.3,2.6-0.5,3.8-1
		c0.5-0.2,1.1-1,1.3-1.6C50.1,30.6,49.9,29.4,49.2,28.3z M46.4,32.9c-0.3-1.5-0.5-2.6-0.8-4c0.6,0.1,1.5-0.1,1.6,0.2
		c0.4,0.7,0.7,1.7,0.6,2.5C47.9,31.9,47.1,32.3,46.4,32.9z"/>
	<path class="st0" d="M47.2,21.2c0.7,0.1,1.2,0.2,1.7,0.2c0.1,1.6-0.8,2.7-2.3,3c-2.2,0.4-3.6-0.3-4.2-2.4c-0.6-2.2,0-3.9,1.7-4.7
		c1.9-0.9,3.5-0.4,4.4,1.3c-0.5,0.3-1,0.5-1.6,0.7c0-0.1,0-0.2,0-0.4c-0.6-0.1-1.3-0.3-1.9-0.2c-0.8,0.3-0.7,1.1-0.6,1.9
		c0,0.3,0.1,0.6,0.2,0.8c0.1,0.7,0.5,1.2,1.2,1.2C46.7,22.9,47.1,22.2,47.2,21.2z"/>
	<path class="st0" d="M55.6,28c0.1,0.4,0.2,0.7,0.3,1.2c-1,0.2-1.9,0.4-3,0.7c0.1,0.4,0.1,0.8,0.2,1.3c1.1-0.2,2.2-0.4,3.3-0.7
		c0.1,0.5,0.2,0.9,0.3,1.4c-1.8,0.3-3.5,0.7-5.3,1c-0.4-2.2-0.8-4.3-1.2-6.6c1.7-0.3,3.4-0.7,5.1-1c0.1,0.5,0.2,0.8,0.3,1.3
		c-0.9,0.2-1.7,0.4-2.5,0.5c-0.7,0.1-0.9,0.5-0.5,1.2C53.6,28.4,54.5,28.2,55.6,28z"/>
	<path class="st0" d="M72.6,22.1c1.8-0.3,3.4-0.7,5.2-1c0.1,0.5,0.1,0.9,0.2,1.4c-1,0.2-2,0.4-3.1,0.7c0,0.3,0.1,0.6,0.1,1
		c1-0.2,2-0.3,3-0.5c0.1,0.4,0.1,0.8,0.2,1.3c-1,0.2-1.9,0.4-3,0.6c0.1,0.4,0.1,0.8,0.2,1.3c1.1-0.2,2.2-0.4,3.3-0.6
		c0.1,0.5,0.2,0.9,0.3,1.4c-1.7,0.3-3.4,0.7-5.2,1C73.4,26.5,73,24.4,72.6,22.1z"/>
	<path class="st0" d="M71.9,22.4c-0.4,2.3-0.7,4.5-1.1,6.8c-0.6,0.1-1.3,0.3-2.1,0.5c-1.2-2-2.3-4-3.5-6.1c0.5-0.1,0.9-0.2,1.3-0.3
		c0.5-0.2,0.8,0,1,0.5c0.6,1.2,1.2,2.4,1.9,3.8c0.2-1.4,0.3-2.5,0.4-3.6C70,22.4,70.1,22.3,71.9,22.4z"/>
	<path class="st0" d="M90.1,25.5c-0.5,0.1-1.1,0.2-1.8,0.3c0.2-2.9-1.8-4.2-3.4-6c1.7-1.2,2.6,0,3.6,1.5c0.5-1.5,0.8-3.2,2.9-2.8
		c-0.6,2.2-2.4,4.2-1,6.9C90.3,25.4,90.2,25.4,90.1,25.5z"/>
	<path class="st0" d="M57.8,31.8c-0.4-2.2-0.8-4.3-1.2-6.5c0.6-0.1,1.2-0.3,1.9-0.4c0.3,1.6,0.6,3.2,0.9,4.9c1-0.2,1.9-0.3,3-0.5
		c0.1,0.5,0.2,1,0.3,1.6C61,31.2,59.4,31.5,57.8,31.8z"/>
	<path class="st0" d="M62.5,24.1c0.7-0.1,1.2-0.2,1.9-0.4c0.4,2.2,0.8,4.3,1.2,6.5c-0.6,0.1-1.2,0.2-1.9,0.4
		C63.3,28.4,62.9,26.3,62.5,24.1z"/>
	<path class="st0" d="M97.8,27.1c0.2-0.6,0.3-0.9,0.3-1.1c0,0-0.1-0.1-0.1-0.1c-0.2,0.2-0.4,0.4-0.5,0.6c-0.1,0-0.1-0.1-0.2-0.1
		c0.2-0.4,0.6-0.8,0.7-1.3c0.2-0.5,0.2-1.1,0.2-1.7c0-0.5-0.1-1.1-0.1-1.6c0-0.6-0.1-1.1-0.2-1.9C98.8,21.2,98.7,25.8,97.8,27.1z"/>
	<path class="st0" d="M53.3,39.8c-1,0.2-2,0.5-2.9,0.7c0-0.1,0-0.2-0.1-0.2c1-0.2,2-0.5,2.9-0.7C53.3,39.6,53.3,39.7,53.3,39.8z"/>
</g>
</svg>
