<svg id="visual" viewBox="0 0 900 600" width="900" height="600" xmlns="http://www.w3.org/2000/svg" xmlns:xlink="http://www.w3.org/1999/xlink" version="1.1"><rect width="900" height="600" fill="#e3dcdc"></rect><g><g transform="translate(499 147)"><path d="M78.3 -75.1C99.9 -56.7 114.7 -28.4 115.9 1.2C117.1 30.8 104.8 61.7 83.3 84.2C61.7 106.7 30.8 120.9 -0.4 121.3C-31.6 121.6 -63.1 108.2 -85.9 85.7C-108.7 63.1 -122.6 31.6 -121.7 1C-120.7 -29.7 -104.9 -59.3 -82.1 -77.7C-59.3 -96.1 -29.7 -103.2 -0.7 -102.5C28.4 -101.9 56.7 -93.5 78.3 -75.1Z" fill="#9c23d0"></path></g><g transform="translate(525 475)"><path d="M83.2 -84.2C105 -61.3 118.1 -30.6 115.8 -2.3C113.5 26 95.8 52 73.9 70C52 88 26 98 0.5 97.5C-25 96.9 -50 86 -71.2 68C-92.5 50 -110 25 -111.5 -1.5C-112.9 -27.9 -98.3 -55.8 -77 -78.7C-55.8 -101.6 -27.9 -119.5 1.4 -120.9C30.6 -122.2 61.3 -107.1 83.2 -84.2Z" fill="#9c23d0"></path></g><g transform="translate(165 73)"><path d="M55 -53.5C68.6 -41.4 75.2 -20.7 74.9 -0.3C74.6 20.1 67.4 40.2 53.8 53.7C40.2 67.2 20.1 74.1 -0.3 74.4C-20.7 74.7 -41.4 68.4 -56.2 54.9C-71 41.4 -79.9 20.7 -79.7 0.2C-79.5 -20.3 -70.2 -40.7 -55.4 -52.8C-40.7 -65 -20.3 -69 0.2 -69.2C20.7 -69.4 41.4 -65.7 55 -53.5Z" fill="#9c23d0"></path></g><g transform="translate(44 488)"><path d="M74.1 -71.8C93 -55.3 103.1 -27.6 100.3 -2.7C97.6 22.1 82 44.3 63.2 60.6C44.3 77 22.1 87.5 -0.9 88.3C-23.9 89.2 -47.7 80.4 -66.4 64.1C-85 47.7 -98.5 23.9 -100.3 -1.8C-102 -27.4 -92.1 -54.8 -73.4 -71.3C-54.8 -87.8 -27.4 -93.4 0.1 -93.5C27.6 -93.6 55.3 -88.3 74.1 -71.8Z" fill="#9c23d0"></path></g><g transform="translate(886 192)"><path d="M61.8 -66.3C75.6 -47.9 79.5 -23.9 78.9 -0.6C78.3 22.8 73.3 45.5 59.4 61C45.5 76.6 22.8 84.9 0.9 84C-21 83.2 -42 73.1 -56.3 57.5C-70.6 42 -78.2 21 -80.5 -2.3C-82.8 -25.5 -79.7 -51.1 -65.4 -69.6C-51.1 -88 -25.5 -99.4 -0.8 -98.6C23.9 -97.8 47.9 -84.8 61.8 -66.3Z" fill="#9c23d0"></path></g><g transform="translate(878 534)"><path d="M58.3 -56.6C74.9 -41.8 87.1 -20.9 87.1 0C87.1 20.9 74.9 41.8 58.3 58.2C41.8 74.6 20.9 86.5 0.5 86C-20 85.6 -40 72.8 -56 56.4C-72.1 40 -84.2 20 -85.1 -0.9C-86 -21.8 -75.6 -43.5 -59.6 -58.4C-43.5 -73.2 -21.8 -81 -0.4 -80.6C20.9 -80.1 41.8 -71.4 58.3 -56.6Z" fill="#9c23d0"></path></g></g></svg>